# xmcd CD database file
# Copyright (C) 1997 Ti Kan
# 
# Track frame offsets:
#     150
#     10885
#     19335
#     27972
#     47217
#     59212
#     68535
#     78987
#     92747
#     102602
# 
# Disc length: 1491 seconds
# 
# Revision: 1
# Processed by: cddbd v1.4b41PL1 Copyright (c) Steve Scherf et al.
# Submitted via: DiscPlay 4.0.3
# 
DISCID=8305d10a
DTITLE=Eddy Arnold and Charlie Pride - Christmas with
DYEAR=1900
DGENRE=
TTITLE0=Winter Wonderland
TTITLE1=Deck The Halls
TTITLE2=Santa Claus is Comin' to Town
TTITLE3=O Holy Night
TTITLE4=O Little Town of Bethlemem
TTITLE5=Little Drummer Boy
TTITLE6=Jolly Old Saint Nicholas
TTITLE7=Silent Night
TTITLE8=It Came Upon a Midnight Cleer
TTITLE9=Christmas In My Home Town
EXTD=
EXTT0=
EXTT1=
EXTT2=
EXTT3=
EXTT4=
EXTT5=
EXTT6=
EXTT7=
EXTT8=
EXTT9=
PLAYORDER=
